<svg preserveAspectRatio="none" width="100%" height="100%" overflow="visible" style="display: block;" viewBox="0 0 15 15" fill="none" xmlns="http://www.w3.org/2000/svg">
<path id="Icon" d="M2.74074 9.40741C2.11949 9.40741 1.80886 9.40741 1.56383 9.30592C1.23713 9.17059 0.977562 8.91103 0.842236 8.58432C0.740742 8.33929 0.740742 8.02867 0.740742 7.40741V2.87408C0.740742 2.12734 0.740742 1.75397 0.886067 1.46876C1.0139 1.21787 1.21787 1.0139 1.46876 0.886067C1.75397 0.740742 2.12734 0.740742 2.87408 0.740742H7.40741C8.02867 0.740742 8.33929 0.740742 8.58432 0.842236C8.91103 0.977562 9.17059 1.23713 9.30592 1.56383C9.40741 1.80886 9.40741 2.11949 9.40741 2.74074M7.54074 14.0741H11.9407C12.6875 14.0741 13.0609 14.0741 13.3461 13.9288C13.597 13.8009 13.8009 13.597 13.9288 13.3461C14.0741 13.0609 14.0741 12.6875 14.0741 11.9407V7.54074C14.0741 6.79401 14.0741 6.42064 13.9288 6.13542C13.8009 5.88454 13.597 5.68057 13.3461 5.55274C13.0609 5.40741 12.6875 5.40741 11.9407 5.40741H7.54074C6.79401 5.40741 6.42064 5.40741 6.13542 5.55274C5.88454 5.68057 5.68057 5.88454 5.55274 6.13542C5.40741 6.42064 5.40741 6.79401 5.40741 7.54074V11.9407C5.40741 12.6875 5.40741 13.0609 5.55274 13.3461C5.68057 13.597 5.88454 13.8009 6.13542 13.9288C6.42064 14.0741 6.79401 14.0741 7.54074 14.0741Z" stroke="var(--stroke-0, #1246FF)" stroke-width="1.48148" stroke-linecap="round" stroke-linejoin="round"/>
</svg>
