<svg preserveAspectRatio="none" width="100%" height="100%" overflow="visible" style="display: block;" viewBox="0 0 16 16" fill="none" xmlns="http://www.w3.org/2000/svg">
<g id="copy-01" clip-path="url(#clip0_153_889)">
<path id="Icon" d="M3.33398 9.99967C2.71273 9.99967 2.4021 9.99967 2.15707 9.89818C1.83037 9.76286 1.5708 9.50329 1.43548 9.17659C1.33398 8.93156 1.33398 8.62093 1.33398 7.99967V3.46634C1.33398 2.7196 1.33398 2.34624 1.47931 2.06102C1.60714 1.81014 1.81111 1.60616 2.062 1.47833C2.34721 1.33301 2.72058 1.33301 3.46732 1.33301H8.00065C8.62191 1.33301 8.93253 1.33301 9.17756 1.4345C9.50427 1.56983 9.76383 1.82939 9.89916 2.1561C10.0007 2.40112 10.0007 2.71175 10.0007 3.33301M8.13398 14.6663H12.534C13.2807 14.6663 13.6541 14.6663 13.9393 14.521C14.1902 14.3932 14.3942 14.1892 14.522 13.9383C14.6673 13.6531 14.6673 13.2797 14.6673 12.533V8.13301C14.6673 7.38627 14.6673 7.0129 14.522 6.72769C14.3942 6.4768 14.1902 6.27283 13.9393 6.145C13.6541 5.99967 13.2807 5.99967 12.534 5.99967H8.13398C7.38725 5.99967 7.01388 5.99967 6.72866 6.145C6.47778 6.27283 6.27381 6.4768 6.14598 6.72769C6.00065 7.0129 6.00065 7.38627 6.00065 8.13301V12.533C6.00065 13.2797 6.00065 13.6531 6.14598 13.9383C6.27381 14.1892 6.47778 14.3932 6.72866 14.521C7.01388 14.6663 7.38725 14.6663 8.13398 14.6663Z" stroke="var(--stroke-0, #868686)" stroke-width="1.33333" stroke-linecap="round" stroke-linejoin="round"/>
</g>
<defs>
<clipPath id="clip0_153_889">
<rect width="16" height="16" fill="white"/>
</clipPath>
</defs>
</svg>
