<svg preserveAspectRatio="none" width="100%" height="100%" overflow="visible" style="display: block;" viewBox="0 0 14 13" fill="none" xmlns="http://www.w3.org/2000/svg">
<path id="Icon" d="M6.55558 11.9698H12.5556M0.555602 11.9698H1.67196C1.99808 11.9698 2.16115 11.9698 2.3146 11.9329C2.45064 11.9003 2.5807 11.8464 2.7 11.7733C2.83455 11.6908 2.94986 11.5755 3.18046 11.3449L11.5556 2.96977C12.1079 2.41748 12.1079 1.52205 11.5556 0.969769C11.0033 0.417484 10.1079 0.417485 9.55562 0.969769L1.18044 9.34493C0.949839 9.57553 0.834538 9.69083 0.752082 9.82539C0.678977 9.94468 0.625104 10.0747 0.592442 10.2108C0.555602 10.3642 0.555602 10.5273 0.555602 10.8534V11.9698Z" stroke="var(--stroke-0, #868686)" stroke-width="1.11111" stroke-linecap="round" stroke-linejoin="round"/>
</svg>
